<?xml version="1.0" encoding="UTF-8" standalone="no"?>
<svg
   xmlns:dc="http://purl.org/dc/elements/1.1/"
   xmlns:cc="http://creativecommons.org/ns#"
   xmlns:rdf="http://www.w3.org/1999/02/22-rdf-syntax-ns#"
   xmlns:svg="http://www.w3.org/2000/svg"
   xmlns="http://www.w3.org/2000/svg"
   xmlns:sodipodi="http://sodipodi.sourceforge.net/DTD/sodipodi-0.dtd"
   xmlns:inkscape="http://www.inkscape.org/namespaces/inkscape"
   width="256"
   height="256"
   viewBox="0 0 67.733332 67.733335"
   version="1.1"
   id="svg8"
   sodipodi:docname="extension.svg"
   inkscape:version="0.92.4 5da689c313, 2019-01-14"
   inkscape:export-filename="/home/ag/git/irccloud-ui/icons/128.png"
   inkscape:export-xdpi="48"
   inkscape:export-ydpi="48">
  <sodipodi:namedview
     pagecolor="#ffffff"
     bordercolor="#666666"
     borderopacity="1"
     objecttolerance="10"
     gridtolerance="10"
     guidetolerance="10"
     inkscape:pageopacity="0"
     inkscape:pageshadow="2"
     inkscape:window-width="3840"
     inkscape:window-height="2032"
     id="namedview11"
     showgrid="false"
     inkscape:zoom="7.6022028"
     inkscape:cx="155.93255"
     inkscape:cy="134.68513"
     inkscape:window-x="0"
     inkscape:window-y="54"
     inkscape:window-maximized="1"
     inkscape:current-layer="g4593" />
  <defs
     id="defs2" />
  <metadata
     id="metadata5">
    <rdf:RDF>
      <cc:Work
         rdf:about="">
        <dc:format>image/svg+xml</dc:format>
        <dc:type
           rdf:resource="http://purl.org/dc/dcmitype/StillImage" />
        <dc:title />
      </cc:Work>
    </rdf:RDF>
  </metadata>
  <g
     id="layer1"
     transform="translate(0,-229.26665)">
    <g
       id="g4593"
       transform="translate(2.070545,-1.4632161e-5)">
      <circle
         r="25.788666"
         cy="263.13333"
         cx="31.796122"
         id="path4518"
         style="fill:#0064ff;fill-opacity:1;stroke:none;stroke-width:2;stroke-linecap:round;stroke-miterlimit:4;stroke-dasharray:none;stroke-opacity:1" />
      <g
         id="g831">
        <path
           style="fill:#ffffff;fill-opacity:1;stroke:none;stroke-width:8.65998554;stroke-linecap:round;stroke-miterlimit:4;stroke-dasharray:none;stroke-opacity:1"
           d="M 127.41016 56.583984 A 44.329258 44.329258 0 0 0 83.080078 100.91406 A 44.329258 44.329258 0 0 0 84.613281 112.4082 A 31.306713 31.306713 0 0 0 83.605469 112.35742 A 31.306713 31.306713 0 0 0 52.298828 143.66406 A 31.306713 31.306713 0 0 0 83.605469 174.9707 A 31.306713 31.306713 0 0 0 101.15039 169.55664 A 58.0095 44.197716 0 0 0 140.95703 181.67969 A 58.0095 44.197716 0 0 0 198.9668 137.48242 A 58.0095 44.197716 0 0 0 171.70898 100.06836 A 44.329258 44.329258 0 0 0 127.41016 56.583984 z "
           id="path826"
           transform="matrix(0.26458333,0,0,0.26458333,-2.070545,229.26666)" />
      </g>
    </g>
  </g>
</svg>
